<?xml version="1.0" encoding="UTF-8"?>
<svg id="Ebene_1" data-name="Ebene 1" xmlns="http://www.w3.org/2000/svg" viewBox="0 0 158.93 21.66">
  <defs>
    <style>
      .cls-1 {
        font-family: CooperBlack, 'Cooper Black';
        font-size: 17px;
      }

      .cls-1, .cls-2 {
        fill: #740500;
      }

      .cls-3 {
        letter-spacing: 0em;
      }

      .cls-4 {
        letter-spacing: -.02em;
      }

      .cls-5 {
        letter-spacing: 0em;
      }
    </style>
  </defs>
  <g>
    <path class="cls-2" d="m17.24,5.53s.04.05.04.05c-.05.1-.09.18-.13.26-.02.04-.03.08-.06.12-.16.26-.32.52-.48.77-.13.2-.26.42-.43.59-.23.23-.46.46-.65.72-.02.03-.07.04-.1.07-.05.04-.1.09-.16.14-.01.01-.03.03-.04.03-.11-.01-.13.07-.18.14-.04.05-.09.11-.15.14-.19.1-.36.22-.5.38-.1.11-.23.18-.36.25-.13.07-.18.2-.28.29-.12.11-.25.21-.36.32-.13.14-.26.3-.38.46-.14.19-.25.41-.44.58-.01.01-.03.04-.03.05.03.1-.03.14-.1.18-.02,0-.04.03-.04.05,0,.16-.11.26-.22.37.03.02.05.04.08.05-.04.06-.09.12-.12.18-.02.03-.02.08-.03.12-.01.05-.03.1-.05.15,0,.02-.03.06-.02.07.05.06,0,.11-.01.16-.04.09-.07.19-.1.29-.04.1-.09.19-.14.28-.08.15-.15.31-.23.46-.12.24-.25.47-.38.7-.09.16-.16.34-.34.42,0,0-.01,0-.01.01,0,.13-.14.14-.18.22-.07.12-.2.17-.26.28-.1.17-.25.3-.41.42-.13.1-.24.22-.37.33-.04.04-.09.08-.14.1-.14.05-.26.12-.37.22-.11.11-.23.18-.38.22-.04.01-.07.06-.1.09-.04.03-.07.07-.11.08-.16.05-.31.09-.44.2-.08.07-.22.08-.33.11-.03,0-.07.01-.08.03-.06.11-.16.09-.26.12-.09.03-.17.08-.26.11-.1.03-.21.04-.31.07-.04.01-.07.05-.11.07-.03.02-.06.04-.09.04-.07.01-.14.02-.21.02-.07,0-.11.02-.12.11-.08,0-.15,0-.23,0-.07,0-.15-.03-.18.07,0,.01-.04.01-.07.01-.08,0-.16,0-.24,0-.04,0-.07.04-.1.05-.02.01-.05.02-.07.02-.12-.02-.25-.03-.35.05,0,0-.01,0-.02,0-.22-.11-.46.13-.68-.05-.03.1-.08.09-.15.08-.07-.02-.14-.03-.23-.01-.16.02-.33,0-.49-.01-.09,0-.17-.03-.26-.05-.05,0-.1-.01-.14-.03-.06-.03-.11-.06-.19-.02-.03.02-.11-.03-.17-.05-.05-.01-.09-.01-.14-.02-.04,0-.09-.02-.13-.03-.08-.03-.16-.06-.24-.09,0,0-.01,0-.02,0-.15-.07-.3-.14-.45-.21-.06-.03-.13-.05-.19-.08-.15-.08-.29-.15-.43-.24-.23-.15-.46-.3-.67-.47-.16-.13-.28-.31-.41-.47-.02-.03-.05-.06-.05-.1-.01-.17-.07-.34.01-.51.02-.04.02-.09.03-.13.02-.04.03-.1.06-.13.05-.05.12-.08.08-.17,0-.01,0-.03.02-.05.12-.16.22-.33.36-.47.1-.1.24-.17.36-.26.08-.06.15-.14.23-.21.02-.02.05-.04.08-.05.2-.09.38-.19.52-.38.02-.03.06-.04.09-.06.14-.07.28-.12.38-.26.07-.1.2-.14.31-.21.06-.04.13-.07.17-.12.11-.13.25-.23.41-.3.06-.03.12-.08.18-.12.17-.16.34-.32.51-.48,0,0-.02-.01-.05-.03.13-.07.19-.18.23-.32.02-.07.09-.11.15-.18-.1-.06-.05-.13,0-.21.03-.05.12-.11.02-.19-.02-.01.03-.1.05-.16.02-.05.1-.1,0-.16,0,0,0-.04.02-.06.03-.08.06-.15.1-.24-.07-.02-.08-.06-.04-.13.03-.04.04-.1.05-.15,0-.02.01-.05,0-.06-.09-.06-.02-.12,0-.19.01-.06.02-.13.03-.19,0-.02,0-.05,0-.07.04-.19.09-.38.14-.57,0-.01.01-.03,0-.04-.08-.1.01-.18.03-.27,0-.03,0-.07,0-.11,0-.05,0-.09.02-.14,0-.03.04-.06.04-.09-.02-.12,0-.23.07-.33,0-.01.01-.05,0-.06-.09-.08-.03-.15.01-.22.03-.05.05-.09,0-.16-.02-.03.01-.1.03-.15.02-.07.1-.12.03-.21-.02-.02.04-.11.06-.18,0-.04,0-.08,0-.13,0-.03,0-.06,0-.09.02-.12.04-.24.06-.35,0-.03.01-.06.02-.09.03-.08.06-.15.05-.25-.01-.14.04-.28.06-.42,0-.07,0-.14.01-.21,0-.01,0-.03,0-.04.05-.19.1-.38.16-.58-.09-.03-.05-.09-.02-.16.03-.07.1-.13.02-.22-.02-.02.02-.09.03-.14.01-.05,0-.11.03-.16.03-.07.06-.14.1-.21.02-.05.05-.1.08-.14.02-.02.04-.05.06-.06.09-.04.19-.07.29-.11.02,0,.06,0,.07-.02.1-.15.25-.08.38-.08.02,0,.05,0,.06,0,.03-.1.1-.05.16-.04.07.01.15.07.21-.02,0,0,.02,0,.03,0,.16.06.32.12.48.18.02,0,.03.02.05.02.13-.03.2.07.29.13.07.04.15.06.23.1.13.07.27.15.4.24.05.03.08.04.12,0,.03-.03.06-.05.1-.08.06-.04.11-.07.13-.15.03-.07.12-.11.19-.17.02-.02.04-.03.08-.05-.04-.01-.06-.02-.1-.03.02-.03.03-.05.05-.07.05-.05.13-.1.14-.16.02-.11.09-.19.1-.28.02-.13.04-.26.09-.38,0-.01.01-.04,0-.05-.08-.09-.01-.18,0-.27,0-.03-.01-.07-.02-.1,0-.02-.02-.05-.02-.07,0-.08.01-.16.01-.24,0-.03,0-.08-.02-.08-.08-.03-.07-.09-.07-.15-.01-.11,0-.23-.11-.31,0,0-.01-.01-.01-.02.06-.18-.05-.39.11-.55.03-.02.06-.03.11-.06-.04,0-.07-.01-.1-.02,0-.01,0-.02-.01-.03.06-.04.13-.07.19-.11.04-.03.08-.06.1-.1.03-.09.11-.1.18-.12.1-.02.2-.05.27-.12.1-.09.24-.08.36-.09.04,0,.1.02.11-.06,0-.01.05-.02.08-.02.11,0,.23-.02.34-.02.06,0,.11.02.17.03.06.01.1.06.16-.02.01-.02.11,0,.17.02.06.02.11.05.17,0,.02-.02.08.01.12.02.07.02.14.03.21.05.07.02.13.06.2.09.04.02.07.08.12,0,0,0,.04,0,.06.02.05.03.09.06.14.09.02.01.05.04.06.03.1-.06.15.03.22.07.01,0,.02.02.04.02.15-.02.24.09.34.18l.02-.03s.08.02.11.04c.04.03.08.07.12.1.04.02.08.02.13.02.05.06.11.11.16.17,0,0,.03.02.04.02.09-.07.11.03.16.06.06.04.13.08.19.11.01,0,.03,0,.04.01.13.1.26.2.4.3.1.07.21.12.32.19.03.02.06.03.08.05.13.12.25.26.39.37.11.08.19.22.29.28.11.07.25.2.42.12.04-.02.11.04.17.05.05,0,.1,0,.14,0,.06.01.11.03.16.06.06.03.1.09.17.03.01-.01.07.02.1.05.04.04.07.1.15.04.01,0,.05.01.07.02.09.06.18.12.26.18.04.03.06.07.1.1.06.05.12.09.17.14.02.02.03.04.04.06.04.08.08.17.19.19.02,0,.05.04.06.06.04.11.08.22.12.33,0,.02,0,.06.02.07.15.09.08.23.08.35,0,.03,0,.07,0,.07.09.04.04.11.04.17,0,.08-.01.16-.01.24,0,.03,0,.06,0,.09-.07.22-.13.44-.21.66-.02.06-.07.1-.11.16Zm-11.38.76c.07.02.13.05.2.06.04,0,.08,0,.11,0,.04,0,.08-.02.13-.01.09.01.18.06.26.04.11-.03.18.05.27.06.14.02.11.14.17.21.13.17-.04.25-.09.37,0,.02-.04.03-.07.04-.1.02-.2-.03-.29.04,0,0-.03,0-.05-.01-.21-.04-.42-.08-.64-.12-.01.02-.03.05-.04.08-.08-.02-.15-.04-.22-.07-.06-.02-.1,0-.12.06,0,.03-.02.05-.03.08-.04.11-.11.2-.06.34.03.07.12.17.18.11.1-.09.17-.01.26,0,.03,0,.07,0,.1,0,.04,0,.07-.02.11-.02.08.01.15.03.23.05.02,0,.06,0,.07,0,.04-.05.08-.03.12,0,.09.08.17.15.17.3,0,.19-.02.24-.21.31-.03.01-.05.03-.08.04-.05.01-.1.02-.15.02-.05,0-.1-.03-.14-.02-.12.06-.23.02-.34-.02-.07-.03-.12-.03-.15.04-.08-.02-.15-.03-.22-.04-.06-.01-.11.03-.1.08.02.13-.03.24-.11.34.05.04.09.09.14.12.02.01.05,0,.08,0,.03,0,.07-.02.1-.02.1,0,.21.06.29.03.08-.03.13-.01.2,0,.04.01.09.02.14.02.05,0,.11-.01.16,0,.07,0,.14.03.21.04.01,0,.03.01.04.03.05.08.1.17.15.27-.02.05-.06.12-.1.19-.05.11-.13.17-.26.15-.06,0-.13,0-.19,0-.03,0-.07,0-.1,0-.05-.01-.1-.04-.16-.05-.02,0-.06,0-.07.01-.03.07-.08.04-.13.03-.07-.01-.13-.03-.2-.03-.09,0-.17,0-.26,0-.03,0-.08.02-.09.05-.08.15-.06.32-.06.5.05-.01.1-.02.15-.03.03,0,.06-.02.09-.02.11.02.21.07.32,0,.01,0,.04,0,.06.01.09.03.18.06.28,0,.02-.01.05-.01.07,0,.12.03.24.05.36.1.05.02.1.09.1.14,0,.11-.02.22-.06.32-.06.13-.19.18-.33.13-.02,0-.06-.02-.07,0-.11.08-.22.01-.32,0-.04,0-.11-.03-.13,0-.06.07-.12.03-.18,0-.06-.02-.14-.08-.19.02,0,0-.04,0-.07,0-.08,0-.15-.02-.24-.03,0,.04,0,.08,0,.1.05.09.02.16-.02.24-.03.06-.09.11-.01.18,0,0-.01.04-.02.07-.05.13-.1.25-.15.38,0,0,.02.02.03.03.14-.08.27-.07.42,0,0-.12.06-.1.12-.07.04.02.09.03.14.04.02,0,.05,0,.07-.01.03,0,.07-.02.1-.01.1.01.18.12.3.04,0,0,.04.02.06.03.03.02.06.05.09.06.16.08.33.15.49.24.15.09.33.16.37.37.15-.07.23.06.34.1.17-.19.34-.38.51-.58.01-.01.01-.04.02-.05,0-.03,0-.07.01-.09.13-.12.08-.31.17-.45,0,0,0-.01,0-.02,0-.05,0-.1.01-.14.03-.07.07-.13.1-.2-.03-.01-.05-.02-.07-.03.02-.12.06-.24.04-.34-.01-.11-.01-.2.02-.3,0-.02,0-.06,0-.08,0-.03-.03-.06-.03-.09,0-.2,0-.41,0-.61,0,0,0-.02,0-.03-.09-.1-.05-.21-.04-.32,0-.03,0-.08-.02-.09-.07-.03-.05-.08-.06-.13-.03-.22-.06-.43-.1-.64,0-.01-.01-.03-.01-.04-.02-.08-.05-.16-.07-.24-.02-.08.04-.18-.08-.23,0,0,0-.02,0-.03.04-.23-.1-.47.07-.69-.12-.01-.1-.07-.06-.13.03-.04.06-.07.07-.11.01-.03,0-.08,0-.12-.02,0-.03-.01-.05-.02.18-.11.16-.35.33-.46.01,0,.02-.04.03-.05.02-.03.04-.07.07-.09.08-.06.19-.1.23-.18.06-.09.14-.14.23-.17.05-.02.11-.03.17-.05.05-.01.12-.02.13-.05.03-.08.09-.07.15-.07.06,0,.12,0,.18,0,.05,0,.09-.03.13-.05,0-.01,0-.02,0-.03.03,0,.06.02.09.02.09,0,.18,0,.27-.02.07-.01.13-.04.2-.06.07-.01.15-.02.23-.03-.01-.1.05-.11.13-.12.12-.02.25-.04.35-.13.1-.09.22-.18.33-.25.08-.05.19-.07.2-.19,0-.02.03-.03.04-.04.06-.07.12-.14.18-.21.03-.04.08-.07.12-.09.07-.03.1-.06.03-.12-.02-.02-.03-.06-.03-.09-.01-.1.01-.22-.04-.29-.09-.11-.06-.22-.05-.33,0-.04,0-.07-.01-.11,0-.04-.03-.08-.03-.13,0-.09.05-.18.02-.25-.03-.08,0-.14.01-.2.01-.05.03-.1.05-.15-.09-.02-.07-.07-.04-.12.02-.05.04-.11.06-.16,0-.02,0-.05,0-.06-.08-.03-.03-.08-.01-.12.03-.07.06-.13.09-.19-.01,0-.02,0-.03,0,0-.04,0-.09.01-.13.02-.06.06-.12.08-.19.07-.18.13-.37.21-.55.03-.06.03-.11-.03-.14-.06-.04-.13-.06-.2-.09-.05-.02-.1-.04-.15-.05-.04-.01-.07-.02-.11-.03-.1-.02-.21-.04-.31-.05-.04,0-.08,0-.12,0-.05,0-.11,0-.16,0-.07,0-.15-.07-.22.03,0,0-.04,0-.06,0-.08,0-.15,0-.23,0-.03,0-.07,0-.08.01-.05.12-.17.08-.26.11-.07.02-.15.05-.22.09-.15.1-.21.25-.13.35.1.12.09.25.09.39,0,.02,0,.06.01.07.13.05.05.16.06.24,0,.06-.01.14.02.18.04.06.03.1.01.15-.02.08-.07.15,0,.23.01.01-.01.05-.02.08-.02.06-.05.13-.04.19.02.1,0,.17-.06.24-.02.03-.03.08-.02.11.02.07,0,.12-.05.16-.02.02-.04.05-.05.08-.12.32-.27.61-.53.83-.02.01-.02.03-.04.05-.06.06-.13.11-.19.16-.03.02-.07.04-.08.07-.08.17-.22.27-.36.38-.1.08-.21.15-.32.22-.07.05-.15.11-.23.15-.06.03-.13.03-.19.05-.03,0-.08.03-.08.05,0,.09-.07.09-.14.1-.09,0-.19,0-.26.04-.1.07-.2.09-.31.09-.05,0-.09.02-.14.03-.08.01-.16.03-.24.04-.04,0-.1-.01-.13,0-.08.07-.17.04-.26.05-.08,0-.17.01-.25.05-.12.06-.13.15-.05.23-.03.07-.06.14-.08.21,0,.03,0,.08,0,.08.09.04.18.06.27.09,0-.03.01-.05.02-.09Zm6.09,4.29s.02-.03.03-.04c.12-.14.25-.29.37-.43.05-.06.11-.13.16-.2.02-.03.03-.06.04-.09,0-.03,0-.06.02-.08.1-.11.19-.22.29-.32.12-.11.24-.21.37-.31.01-.01.03-.02.03-.04.1-.19.24-.32.42-.42.07-.04.15-.09.2-.16.13-.16.28-.28.46-.36.22-.1.3-.36.54-.42.01,0,.02-.03.03-.04.04-.04.09-.08.13-.11.04-.03.08-.06.11-.1.09-.11.17-.23.27-.34.11-.12.24-.21.34-.33.11-.13.21-.28.3-.43.1-.15.19-.3.28-.45.01-.02.04-.05.04-.07.02-.13.16-.21.17-.36.01-.1.09-.2.13-.3.03-.08.08-.16.09-.26.01-.12.07-.24.1-.37.04-.21,0-.41-.06-.58-.07-.18-.24-.33-.36-.49,0,0-.02,0-.03-.01-.14-.09-.27-.17-.42-.23-.05-.02-.08-.07-.12-.11-.05.1-.12.07-.19.02-.04-.03-.1-.06-.15-.07-.06,0-.13.01-.2.02,0,.04,0,.11-.01.16-.05.15-.12.3-.15.45-.02.11-.04.22-.11.31,0,0,0,.02,0,.03-.03.07-.05.14-.08.2-.02.04-.07.07-.11.12.03.02.05.04.06.06-.11.16-.21.31-.32.47,0,0,0,.01,0,.02.02.16-.14.23-.18.37-.05.16-.2.29-.27.44-.07.16-.24.26-.29.44,0,.01-.02.02-.03.03-.13.17-.31.29-.4.49,0,.01-.02.02-.03.03-.04.04-.1.07-.13.12-.17.27-.38.49-.6.72-.1.1-.18.23-.27.35-.1.14-.2.29-.31.42-.09.11-.19.21-.28.32-.01.01-.01.04-.02.06-.02.03-.03.06-.05.09-.12.15-.24.29-.36.44-.01.01-.02.03-.03.05-.07.12-.14.23-.21.35-.09.15-.18.29-.26.44-.1.18-.2.37-.3.55,0,.01-.01.02-.02.04-.08.18-.16.37-.24.55,0,.02-.02.03-.02.05.02.16-.16.26-.11.43,0,0,0,.02-.02.03-.07.05-.08.12-.08.21,0,.05-.05.11-.08.15-.02.03-.06.06-.12.11.04.02.07.03.08.03-.11.18-.22.33-.31.49-.21.38-.39.78-.73,1.07,0,0-.01.02-.02.04-.04.05-.07.11-.12.16-.11.12-.24.23-.34.37-.13.17-.28.31-.46.42-.05.03-.12.06-.15.11-.08.12-.2.18-.32.23-.12.05-.24.08-.32.19-.02.03-.07.04-.11.05-.07.02-.15.03-.22.04-.03,0-.07.02-.08.04-.02.09-.09.08-.15.09-.07,0-.14.01-.2.02-.02,0-.06.02-.06.03,0,.08-.07.07-.12.08-.08,0-.15,0-.23.02-.03,0-.06.02-.07.04-.03.06-.07.07-.13.07-.07,0-.14,0-.21,0-.03,0-.05.02-.08.04-.03.02-.07.05-.1.06-.23.04-.45.07-.68.11-.02,0-.03.02-.05.02-.07.02-.15.04-.22.06-.06.01-.13,0-.17.02-.11.07-.22.07-.34.06-.03,0-.08,0-.08.02-.02.07-.07.05-.12.05-.1,0-.22-.03-.28.02-.08.06-.13.04-.2.04-.07,0-.14.02-.21.02-.06,0-.13.02-.19.01-.07,0-.15-.05-.19.05,0,0-.04,0-.06,0-.04,0-.08-.02-.12-.02-.08,0-.18-.09-.24.04,0,0-.04,0-.07,0-.07-.01-.14-.03-.21-.04,0,.01-.01.03-.02.04.06.04.11.08.17.1.06.03.12.03.17.06.08.05.15.11.25.07.01,0,.04.02.06.03.05.03.11.06.16.09.02,0,.06.01.06,0,.04-.08.09-.02.13-.01.06.02.12.04.18.05.06,0,.12,0,.18,0,.15.02.3.05.44.08,0,0,.02,0,.03,0,.11-.09.22-.02.32,0,.07.01.12.03.14-.06.02,0,.04,0,.06.01.08,0,.17.04.24.02.11-.04.21-.05.32-.02.03,0,.07,0,.1-.02.04-.01.09-.04.13-.05.06,0,.12.01.18.01.03,0,.07-.02.1-.03.04-.02.08-.05.12-.05.06,0,.13,0,.2,0,.04,0,.07-.03.1-.05.03-.02.06-.04.09-.05.12-.03.27.05.36-.1,0-.01.04,0,.06-.01.08,0,.16-.01.24-.02.03,0,.07-.02.07-.04,0-.07.06-.06.11-.07.09-.02.19-.01.27-.06.14-.08.29-.13.45-.17.03,0,.06-.03.08-.05.05-.03.09-.08.14-.1.09-.03.19-.05.28-.07.03,0,.07-.03.07-.05.03-.1.11-.12.19-.15.1-.03.2-.07.29-.13.14-.08.28-.18.42-.27.03-.02.06-.03.08-.06.08-.1.16-.21.29-.25.02,0,.04-.04.06-.06.02-.02.05-.04.07-.07.08-.07.17-.14.25-.22.1-.1.2-.22.3-.33.09-.1.2-.19.29-.29,0,0,.01-.01.01-.02-.03-.1.07-.11.11-.16.05-.06.09-.12.13-.19.02-.03.04-.07.06-.11.08-.14.18-.28.25-.43.14-.28.27-.57.4-.85.01-.02,0-.05.01-.08,0-.05.01-.1.03-.14.01-.05.05-.09.06-.13.03-.11.05-.22.08-.34,0,0-.01,0-.04-.03.08-.1.16-.19.23-.29-.03,0-.05-.01-.09-.02.05-.07.11-.13.13-.21.04-.15.12-.26.26-.34-.03-.02-.05-.03-.08-.04ZM3.93,15.46s0-.02,0-.03c.04-.02.08-.04.12-.05.07,0,.17.03.21,0,.1-.08.2-.07.31-.06.03,0,.08,0,.1,0,.1-.1.22-.09.34-.09.03,0,.06,0,.08-.01.1-.08.23-.09.35-.09.04,0,.1-.01.12-.04.07-.07.16-.07.25-.08.04,0,.09,0,.13,0,.02,0,.07-.02.07-.03,0-.08.06-.07.12-.08.07,0,.13,0,.2-.01.03,0,.09-.02.1-.04.02-.08.08-.08.15-.08.07,0,.13,0,.19-.02.03,0,.08-.04.08-.07,0-.07.04-.07.1-.08.12-.03.25-.06.35-.13.14-.08.27-.19.4-.3.11-.09.21-.17.3-.27.18-.21.35-.44.54-.65.08-.09.18-.14.23-.27.06-.15.17-.28.25-.42.01-.02.02-.04.03-.07-.13.04-.25.08-.37.12-.02,0-.04.03-.05.05-.05.09-.14.11-.23.14-.12.04-.27.02-.35.16,0,.02-.05.02-.08.02-.08,0-.15,0-.23.02-.03,0-.05.02-.08.03-.04.02-.08.05-.12.05-.07,0-.14-.02-.21-.02-.02,0-.05,0-.07.01-.04,0-.09.02-.13.01-.06,0-.13-.06-.18-.04-.07.02-.1,0-.16-.03-.15-.07-.3-.15-.42-.27-.05-.05-.12-.08-.15-.16,0-.02-.04-.04-.07-.05-.07-.03-.14-.06-.2-.1-.04-.02-.08-.06-.12-.07-.23-.06-.47-.11-.72-.16,0,.11-.07.08-.14.07-.04,0-.08-.02-.12-.02-.02,0-.07,0-.07.02-.03.08-.09.06-.15.06-.07,0-.14,0-.21,0-.03,0-.07.02-.07.03-.02.08-.08.08-.15.09-.11,0-.22,0-.29.1-.12.17-.3.25-.48.34-.03.02-.07.04-.09.07-.09.14-.22.21-.36.29-.07.04-.16.07-.21.14-.14.17-.32.28-.52.36-.04.01-.07.04-.1.07-.06.06-.11.12-.17.17-.13.11-.3.16-.41.3-.05.06-.13.09-.2.14-.13.1-.27.18-.37.3-.11.13-.18.3-.28.44-.11.16.07.41.22.41.1,0,.17.03.25.06.03.01.06,0,.09,0,.08,0,.16,0,.24.03.05.01.1.07.13-.03,0,0,.04-.01.06-.01.06.01.12.03.18.04.02,0,.05,0,.07-.01.04,0,.08-.03.12-.03.09.01.19.04.29.07-.01-.12.06-.1.13-.09.07,0,.14.04.2.02.11-.04.21-.04.32-.02.03,0,.08,0,.09-.02.02-.07.06-.06.12-.05.08.01.16.02.24.03.02,0,.06,0,.06-.02.02-.08.08-.06.13-.06.09,0,.18.01.27.02ZM13.21,5.86c-.09-.04-.17-.07-.24-.11-.07-.04-.11-.13-.22-.1-.01,0-.04-.03-.05-.04-.15-.13-.3-.26-.45-.39-.12-.11-.24-.21-.35-.33-.09-.1-.12-.11-.21,0-.02.03-.04.06-.05.09-.1.15-.21.28-.38.36-.09.04-.2.1-.26.18-.07.09-.15.14-.25.18-.08.03-.19.05-.23.11-.08.12-.19.1-.29.12-.03,0-.06,0-.09,0-.02,0-.06.02-.06.04,0,.08-.06.08-.12.08-.06,0-.12,0-.19,0-.07,0-.13-.01-.12.09-.11-.01-.21-.03-.31-.04-.03,0-.06.01-.09.02-.04.02-.08.05-.12.05-.11,0-.22.01-.31.09-.08.07-.17.14-.25.21-.06.06-.2.06-.14.2,0,0-.02.03-.03.04-.04.05-.08.1-.11.15-.01.02-.01.05-.01.08,0,.05.02.1,0,.14-.03.09-.09.17,0,.25.01,0,0,.04,0,.06,0,.07-.01.13,0,.2,0,.04.03.08.04.12.02.04.04.08.05.12.03.11-.04.25.09.34.01,0,.01.05.01.07,0,.07,0,.14,0,.21,0,.03.01.06.02.09.02.04.05.09.05.13.02.19.04.39.06.58,0,.01,0,.02,0,.03.06.09.05.2.03.3,0,.03-.02.08,0,.1.08.07.05.15.04.23,0,.06-.04.15-.01.19.06.06.03.11.01.17-.01.06-.04.15,0,.18.04.05.03.09.02.14-.02.08-.05.17-.03.25.02.1,0,.17-.05.25-.05.1,0,.23-.08.32,0,0,0,0,0,0,.04.1,0,.17-.05.25-.02.03-.04.07-.03.09.03.07,0,.12-.05.17-.02.02-.03.04-.04.07.1.04.16-.01.21-.06.05-.05.11-.11.17-.14.18-.09.36-.17.48-.34.03-.05.1-.07.15-.1.1-.08.24-.14.3-.24.07-.11.1-.25.13-.37.04-.13.08-.23.19-.32,0,0,.01-.02.02-.04-.03,0-.05-.02-.09-.03.03-.04.06-.06.08-.09.09-.14.19-.28.26-.44.03-.07.05-.13.11-.17.02-.02.04-.05.06-.07.17-.28.33-.56.5-.84.05-.09.13-.16.2-.24.02-.03.04-.06.06-.08.03-.05.05-.1.09-.14.09-.1.19-.21.28-.31,0,0,.01-.02.02-.04.03-.05.06-.1.09-.14.04-.06.09-.12.14-.18.15-.2.3-.41.46-.61.11-.13.24-.24.35-.35.02-.02.04-.05.06-.08.08-.12.16-.25.25-.36.08-.11.18-.2.27-.31Zm-.79-4.72c-.06.14-.14.26-.17.39-.02.11-.06.2-.12.29-.01.02,0,.06,0,.09,0,.03.01.07,0,.09-.03.09-.14.16-.05.27,0,0-.01.04-.02.06-.02.05-.05.11-.07.16,0,.02-.01.06,0,.07.07.05.03.11,0,.16-.04.07-.08.14,0,.21.01.01,0,.05,0,.08-.02.11-.09.23.02.34,0,0,0,.02,0,.03-.04.15.02.27.07.4.03.07.03.15.05.23,0,.03.01.07.04.09.14.12.21.28.29.45,0,.02.01.04.03.05.07.04.14.08.21.12.22.16.44.32.65.48,0,0,.01,0,.02,0,.01-.02.02-.04.04-.06.05.04.09.08.14.11.1.07.12.07.16-.04.02-.04.04-.08.06-.12.09-.16.18-.31.27-.47.05-.08.1-.16.15-.24,0,0-.03-.02-.06-.04.06-.06.12-.12.16-.18.02-.03.03-.07.05-.11.01-.04.02-.08.04-.12.07-.15.15-.29.22-.44,0,0,0-.02,0-.03.02-.07.05-.13.07-.2.01-.04.03-.08.03-.11,0-.05,0-.11,0-.16,0-.05.03-.11.02-.16,0-.07-.02-.14-.12-.15-.03,0-.06-.04-.08-.07-.05-.05-.09-.1-.14-.15-.06-.06-.13-.12-.19-.18-.02-.02-.04-.04-.06-.06-.23-.15-.46-.29-.69-.44-.09-.06-.19-.12-.28-.18-.13-.09-.25-.17-.38-.26-.01,0-.03-.02-.04-.01-.09.04-.12-.03-.17-.07-.04-.03-.08-.07-.13-.12Zm-6.19,2.89c-.07,0-.14.01-.22.02-.14.01-.19.08-.18.21,0,.06-.01.13-.02.2,0,.06-.02.12-.03.18,0,.04.01.08,0,.12-.01.05-.04.09-.06.14,0,.02,0,.08.02.08.1.02.22.07.3.03.12-.06.23-.04.35-.05.03,0,.07,0,.09-.02.05-.02.09-.06.15-.07.11-.03.25,0,.34-.09.05-.06.11-.06.18-.07.07,0,.15-.02.2-.05.1-.06.18-.15.27-.23,0,0-.03-.03-.05-.05-.18-.1-.37-.2-.56-.29-.12-.05-.24-.09-.37-.13-.03,0-.06,0-.09,0-.04,0-.08,0-.11,0-.08,0-.18-.08-.23.06Z"/>
    <path class="cls-2" d="m15.05,5.13s-.02,0-.06-.02c.08-.07.15-.14.22-.21,0,0-.02,0-.02,0,0-.03,0-.06.02-.08.11-.14.24-.27.35-.42.08-.11.14-.22.21-.34.05-.09.12-.14.22-.15.07,0,.15-.02.22-.02.02,0,.04.01.06.03.06.05.12.11.19.14.11.05.13.13.13.24,0,.08,0,.16,0,.24,0,.03-.02.06-.04.09-.05.08-.09.15-.14.22-.03.04-.07.08-.1.12-.01.01-.04.02-.04.03,0,.11-.08.16-.14.23-.02.02-.02.06-.03.08,0,.02,0,.04-.02.06-.11.14-.24.27-.34.42-.08.12-.15.25-.22.38,0,0,0,.02,0,.03-.19.13-.21.36-.34.53-.13.17-.2.4-.43.48-.09.03-.19.09-.27.08-.11-.02-.21-.09-.3-.15-.03-.02-.03-.07-.05-.11-.03-.06-.06-.11-.08-.17-.01-.02-.01-.06,0-.08.09-.27.26-.49.4-.73.07-.11.12-.23.19-.34.04-.07.1-.12.14-.19.03-.04.05-.09.08-.13.07-.09.14-.17.21-.25Z"/>
  </g>
  <text class="cls-1" transform="translate(16.1 17.39)"><tspan class="cls-4" x="0" y="0">N</tspan><tspan x="13.85" y="0">ä</tspan><tspan class="cls-3" x="23.48" y="0">g</tspan><tspan x="33.21" y="0">elis</tspan><tspan class="cls-5" x="62.6" y="0">c</tspan><tspan x="71.51" y="0">hueh.</tspan><tspan class="cls-5" x="120.22" y="0">c</tspan><tspan x="129.14" y="0">h</tspan></text>
</svg>