<?xml version="1.0" encoding="UTF-8"?><svg id="Ebene_1" xmlns="http://www.w3.org/2000/svg" viewBox="0 0 528.49 197.12"><defs><style>.cls-1{letter-spacing:-.02em;}.cls-2,.cls-3{fill:#740500;}.cls-3{font-family:Prompt-Light, 'Prompt Light';font-size:49px;font-weight:300;}</style></defs><path class="cls-2" d="m53.53,142.6c.06.07.12.14.13.15-.15.3-.28.56-.4.82-.06.12-.11.26-.18.37-.49.8-.98,1.61-1.5,2.39-.42.63-.81,1.29-1.34,1.82-.72.71-1.42,1.42-2.03,2.23-.07.1-.22.13-.31.21-.17.14-.33.29-.49.44-.04.03-.08.1-.11.1-.34-.04-.41.23-.56.44-.12.17-.28.34-.46.43-.59.31-1.11.69-1.56,1.19-.3.33-.72.56-1.13.77-.4.21-.56.61-.86.89-.36.34-.76.64-1.1,1.01-.42.45-.8.92-1.17,1.41-.45.6-.78,1.29-1.36,1.79-.04.04-.1.12-.09.16.1.31-.09.44-.31.56-.05.03-.12.1-.11.14.01.51-.34.8-.67,1.14.1.06.17.11.24.16-.14.2-.28.38-.39.57-.06.1-.06.24-.09.36-.05.15-.1.3-.15.45-.02.07-.08.18-.05.22.15.19.02.34-.04.5-.12.29-.2.6-.32.89-.13.3-.28.59-.42.88-.23.48-.46.96-.71,1.43-.38.73-.76,1.47-1.18,2.18-.28.49-.49,1.05-1.06,1.31-.02,0-.05.03-.05.04.02.42-.44.44-.57.69-.2.38-.62.51-.82.87-.31.54-.77.93-1.27,1.29-.41.3-.76.68-1.14,1.01-.13.12-.27.25-.43.31-.43.15-.82.36-1.14.69-.33.33-.71.57-1.17.69-.12.03-.21.18-.32.27-.11.09-.22.22-.35.26-.48.15-.96.27-1.38.62-.26.21-.67.24-1.02.35-.09.03-.23.04-.26.1-.18.34-.51.29-.8.38-.28.09-.54.25-.82.33-.31.1-.64.13-.96.22-.13.03-.23.14-.35.21-.09.05-.18.11-.27.13-.21.03-.43.06-.64.05-.22,0-.34.07-.36.33-.24,0-.48,0-.71,0-.21.01-.46-.09-.57.22-.01.03-.14.04-.21.04-.25,0-.49-.02-.74,0-.11.01-.21.11-.32.16-.07.03-.15.08-.22.07-.39-.05-.76-.09-1.1.17-.02.01-.05.03-.06.02-.69-.35-1.42.39-2.11-.17-.08.32-.26.29-.45.24-.23-.06-.44-.08-.7-.04-.49.07-1.01,0-1.52-.05-.27-.02-.54-.09-.8-.15-.14-.03-.3-.03-.43-.09-.19-.09-.34-.2-.59-.05-.1.06-.34-.1-.52-.15-.14-.03-.29-.03-.43-.06-.14-.02-.28-.05-.41-.09-.25-.08-.49-.18-.74-.28-.02,0-.04,0-.06-.01-.47-.21-.94-.43-1.41-.64-.2-.09-.41-.14-.6-.24-.45-.24-.91-.46-1.33-.74-.71-.47-1.43-.92-2.08-1.47-.49-.41-.87-.96-1.29-1.46-.07-.09-.16-.2-.17-.3-.03-.53-.21-1.07.04-1.6.06-.12.06-.27.11-.4.05-.14.08-.3.18-.4.16-.16.38-.25.25-.54-.01-.03.03-.1.06-.14.37-.49.69-1.03,1.11-1.47.31-.32.74-.52,1.1-.8.25-.2.47-.44.71-.66.08-.07.17-.13.26-.17.62-.27,1.19-.6,1.6-1.17.06-.08.19-.12.29-.17.43-.21.86-.36,1.16-.79.21-.3.63-.45.96-.67.18-.12.4-.21.54-.38.35-.42.77-.72,1.27-.93.2-.08.38-.24.55-.38.54-.49,1.06-.98,1.59-1.48,0,0-.06-.04-.17-.09.42-.23.59-.57.71-.99.06-.2.28-.36.45-.55-.32-.2-.16-.41,0-.66.1-.16.36-.35.06-.6-.05-.04.1-.32.16-.49.06-.17.31-.32.02-.51-.02-.01.02-.14.05-.2.1-.24.2-.47.31-.73-.21-.07-.26-.19-.14-.4.08-.14.11-.3.16-.45.02-.06.05-.16.02-.18-.29-.2-.05-.39,0-.58.04-.19.06-.39.09-.58,0-.07,0-.15,0-.22.14-.59.28-1.17.42-1.76,0-.04.03-.1.01-.12-.25-.32.05-.56.1-.84.02-.11-.01-.22,0-.33,0-.14.02-.29.05-.43.02-.1.12-.2.11-.29-.05-.38.02-.72.22-1.04.03-.05.04-.15,0-.18-.29-.24-.09-.46.03-.67.09-.17.16-.29,0-.49-.06-.08.04-.31.08-.47.05-.21.31-.37.08-.65-.06-.08.14-.36.19-.55.03-.12,0-.26,0-.4,0-.09-.02-.19,0-.28.05-.37.11-.73.17-1.1.02-.09.04-.19.07-.28.08-.25.18-.47.15-.78-.04-.42.12-.87.18-1.31.03-.21.03-.43.04-.65,0-.04-.01-.09,0-.13.16-.6.32-1.19.48-1.81-.28-.09-.15-.28-.07-.48.1-.22.3-.42.06-.7-.06-.07.07-.29.1-.44.03-.17.03-.35.09-.51.08-.23.2-.44.3-.65.08-.15.16-.3.25-.44.05-.07.12-.15.2-.18.29-.12.6-.22.9-.33.07-.03.17-.03.21-.08.32-.46.78-.26,1.19-.25.06,0,.17,0,.18-.01.1-.31.32-.16.5-.13.22.04.46.22.66-.06.01-.02.06-.02.09,0,.5.19,1,.38,1.49.57.05.02.1.07.14.06.4-.1.61.22.89.39.22.13.48.2.71.32.42.23.83.47,1.23.73.15.1.25.12.38-.02.09-.09.19-.17.3-.23.19-.11.33-.22.42-.46.08-.22.38-.35.58-.52.06-.05.13-.09.24-.16-.12-.04-.2-.06-.32-.1.06-.08.1-.15.15-.21.15-.16.4-.31.43-.49.06-.33.26-.6.31-.88.06-.4.12-.79.27-1.17.02-.05.03-.13,0-.16-.24-.29-.03-.56.02-.84.02-.1-.04-.22-.07-.32-.02-.07-.07-.15-.07-.22,0-.25.03-.49.04-.74,0-.09-.01-.24-.06-.26-.25-.09-.21-.29-.23-.48-.04-.34,0-.71-.34-.96-.02-.01-.04-.04-.03-.05.18-.55-.16-1.21.35-1.69.08-.07.2-.11.35-.18-.13-.02-.22-.03-.31-.05-.01-.03-.03-.06-.04-.1.2-.11.41-.21.6-.34.12-.08.26-.19.3-.31.09-.29.35-.32.56-.36.32-.07.61-.17.85-.38.32-.28.73-.26,1.12-.28.14,0,.31.05.35-.18,0-.03.16-.05.25-.05.36-.02.71-.05,1.07-.05.17,0,.35.05.51.1.17.04.33.2.5-.06.04-.07.35.01.52.07.19.07.33.14.53,0,.08-.05.26.04.39.06.22.05.45.08.66.15.21.07.41.18.61.28.12.06.22.24.36.02.01-.02.13.02.19.05.15.08.29.18.43.27.06.04.16.11.2.09.31-.18.47.09.67.22.04.02.08.06.11.06.47-.05.76.28,1.07.55l.05-.1c.12.04.25.06.35.12.14.08.24.22.38.3.11.06.25.08.4.05.17.17.33.35.5.52.03.03.1.06.11.05.28-.23.34.08.49.19.19.13.39.23.59.35.04.02.09.02.12.04.41.31.81.64,1.24.92.32.22.67.38,1,.58.08.05.18.09.24.15.4.38.76.82,1.2,1.15.35.26.58.68.9.87.35.21.76.61,1.31.37.13-.06.35.12.53.16.14.03.3,0,.44.03.18.04.35.1.51.19.17.1.3.28.54.09.04-.03.22.07.31.15.14.12.23.3.45.13.03-.03.15.03.22.07.27.18.55.36.81.56.12.09.2.22.31.32.17.15.36.28.53.42.06.05.09.13.13.2.13.26.25.52.58.6.07.02.16.11.19.19.13.34.25.68.37,1.02.02.07.03.18.08.2.48.28.24.71.23,1.08,0,.08-.01.22.02.23.28.13.14.33.12.52-.03.25-.03.5-.05.74,0,.1.02.2-.01.29-.21.68-.41,1.37-.64,2.05-.06.18-.23.32-.36.49Zm-35.32,2.34c.21.07.41.15.61.19.11.03.24,0,.36,0,.13,0,.26-.05.39-.04.27.03.56.18.8.12.35-.08.56.16.84.19.43.05.35.44.53.66.42.54-.12.79-.29,1.15-.03.06-.14.1-.21.12-.3.05-.63-.11-.91.13-.02.02-.1-.03-.15-.04-.65-.12-1.31-.24-1.98-.36-.04.08-.08.16-.13.25-.24-.07-.46-.13-.68-.2-.2-.07-.3.01-.37.19-.03.08-.06.16-.09.24-.12.34-.36.63-.19,1.04.09.23.38.52.55.36.31-.29.54-.03.8,0,.11.02.22,0,.33,0,.11-.01.23-.07.34-.06.24.03.48.1.72.15.07.01.19.02.22-.03.13-.16.25-.08.36,0,.29.24.54.47.53.92,0,.6-.05.74-.64.96-.09.03-.17.09-.26.12-.15.04-.31.07-.46.07-.14,0-.32-.1-.43-.05-.37.19-.72.05-1.05-.07-.23-.08-.37-.09-.45.13-.25-.05-.46-.09-.68-.13-.2-.03-.35.09-.32.26.06.41-.1.74-.33,1.05.16.14.28.27.43.36.05.04.16,0,.24,0,.11-.02.21-.07.32-.06.31.03.64.18.9.09.25-.08.42-.04.62.02.14.04.29.06.43.06.17,0,.34-.04.5-.02.21.02.43.08.64.13.05.01.1.04.12.08.15.26.3.53.47.83-.07.15-.2.36-.3.58-.16.36-.41.52-.81.46-.19-.03-.39,0-.59,0-.11,0-.22.03-.32,0-.16-.04-.32-.12-.48-.16-.07-.02-.2,0-.21.04-.1.23-.25.13-.4.1-.21-.04-.41-.09-.62-.1-.27-.02-.54-.02-.81,0-.1,0-.25.07-.29.15-.25.47-.2.99-.17,1.54.17-.04.31-.07.45-.1.09-.02.19-.07.27-.05.33.06.65.22.99.01.04-.02.12.02.18.03.28.09.56.2.86.03.06-.03.15-.04.22-.02.37.09.75.16,1.11.3.14.06.31.28.31.42,0,.33-.05.69-.18.99-.18.42-.59.55-1.02.42-.07-.02-.17-.05-.21-.01-.34.26-.67.05-1,0-.13-.02-.34-.09-.39-.02-.2.23-.38.09-.57.03-.2-.07-.43-.26-.6.07-.02.03-.14.01-.21,0-.24-.03-.47-.06-.74-.1,0,.14-.01.24.02.3.16.27.06.51-.07.75-.1.17-.29.35-.04.56.02.02-.05.14-.07.21-.16.39-.32.79-.48,1.18.03.03.06.06.08.09.43-.24.85-.22,1.32,0,0-.39.17-.31.38-.21.13.06.28.1.43.13.07.01.15-.02.23-.03.11-.02.22-.06.32-.05.31.04.57.38.92.13.03-.02.13.05.19.09.1.06.18.15.29.2.5.25,1.02.47,1.51.75.47.28,1.02.5,1.16,1.15.46-.22.72.19,1.07.3.53-.6,1.06-1.19,1.59-1.79.03-.04.04-.11.05-.17.02-.1-.01-.23.04-.28.41-.39.25-.98.53-1.41,0-.02,0-.04,0-.06.01-.15,0-.3.04-.44.08-.21.2-.41.32-.63-.08-.04-.16-.07-.21-.1.05-.38.18-.73.13-1.07-.04-.33-.03-.63.07-.94.02-.07,0-.17-.02-.25-.02-.09-.1-.18-.1-.27,0-.63,0-1.27,0-1.9,0-.03,0-.07-.02-.09-.29-.3-.15-.66-.14-1,0-.1-.01-.26-.06-.28-.22-.08-.15-.25-.17-.39-.1-.67-.2-1.33-.3-2,0-.04-.03-.08-.04-.12-.07-.25-.16-.5-.22-.75-.06-.24.14-.57-.24-.7-.02,0-.03-.06-.02-.09.11-.7-.3-1.44.21-2.13-.37-.04-.32-.21-.18-.4.08-.11.17-.23.21-.35.03-.11,0-.24,0-.36-.05-.02-.1-.03-.14-.05.56-.34.5-1.09,1.04-1.44.05-.03.05-.11.09-.16.07-.09.13-.2.22-.27.24-.19.58-.31.73-.55.19-.29.42-.43.71-.53.17-.06.35-.09.52-.14.14-.04.36-.07.4-.16.11-.25.29-.2.47-.21.18,0,.37.02.54,0,.14-.02.27-.1.41-.15,0-.04-.01-.07-.02-.11.09.02.19.05.28.05.28,0,.57-.02.85-.06.21-.03.42-.13.63-.17.23-.05.46-.06.71-.09-.03-.31.16-.34.39-.37.39-.05.77-.12,1.09-.41.32-.29.67-.55,1.04-.78.25-.16.59-.21.62-.6,0-.05.09-.09.13-.14.19-.22.36-.44.56-.64.11-.11.24-.21.37-.27.23-.1.31-.18.08-.37-.07-.06-.09-.19-.1-.29-.04-.31.04-.7-.12-.9-.27-.35-.17-.68-.17-1.03,0-.11-.02-.22-.04-.33-.03-.13-.1-.26-.09-.39.01-.26.15-.56.07-.78-.09-.25-.02-.43.04-.63.04-.15.1-.3.16-.48-.28-.05-.2-.2-.13-.37.08-.16.14-.34.2-.51.02-.05.03-.16.01-.17-.24-.1-.09-.25-.04-.37.09-.21.19-.4.29-.6-.03,0-.07-.02-.1-.02.01-.13,0-.27.04-.39.07-.2.18-.38.25-.58.22-.57.41-1.14.64-1.7.08-.19.09-.34-.09-.44-.2-.12-.42-.2-.63-.29-.16-.06-.32-.11-.48-.16-.11-.04-.22-.07-.33-.09-.32-.06-.64-.11-.96-.16-.12-.02-.25-.03-.37-.03-.16,0-.33.03-.49.02-.23,0-.48-.23-.68.08-.02.03-.12.01-.18.01-.23,0-.47-.02-.7-.03-.08,0-.22,0-.24.03-.17.37-.52.26-.8.34-.23.07-.48.14-.68.27-.45.3-.64.77-.39,1.07.31.38.29.78.28,1.2,0,.07,0,.2.03.21.41.16.16.48.19.73.02.19-.04.42.06.56.12.18.08.31.03.47-.07.24-.21.48.02.72.03.03-.04.17-.06.26-.05.19-.17.4-.13.58.07.3,0,.51-.17.74-.06.09-.09.24-.07.34.06.22.02.37-.15.51-.07.06-.12.15-.15.24-.36.99-.85,1.89-1.66,2.59-.05.04-.08.1-.12.15-.2.17-.39.34-.59.51-.09.07-.21.13-.25.22-.24.52-.68.85-1.11,1.18-.32.25-.66.47-.99.69-.23.16-.45.34-.7.46-.18.09-.39.09-.58.16-.09.03-.24.1-.24.16-.03.29-.22.29-.43.31-.27.02-.6-.02-.8.12-.31.21-.62.26-.96.29-.15,0-.29.06-.43.09-.24.04-.49.09-.74.12-.14.02-.32-.05-.4.02-.26.22-.54.14-.82.16-.26.02-.54.04-.76.15-.38.19-.42.47-.14.71-.09.22-.19.43-.26.65-.03.08-.02.24.02.26.27.11.56.2.84.29.02-.09.04-.17.07-.29Zm18.9,13.32c.04-.07.06-.1.09-.14.38-.45.77-.89,1.14-1.34.17-.2.33-.41.48-.62.06-.08.08-.19.11-.29.03-.08.02-.18.07-.24.3-.34.59-.69.92-1,.36-.34.76-.64,1.14-.95.04-.03.08-.07.11-.12.3-.57.74-1,1.3-1.31.23-.13.47-.28.63-.48.4-.49.87-.87,1.44-1.13.67-.3.93-1.12,1.67-1.31.04-.01.06-.08.1-.12.13-.12.27-.24.4-.36.12-.1.25-.2.35-.32.28-.35.53-.72.83-1.05.34-.36.75-.65,1.07-1.02.35-.41.64-.88.94-1.33.3-.46.58-.93.87-1.4.04-.07.11-.14.12-.22.08-.42.49-.66.54-1.11.03-.32.28-.61.39-.92.09-.26.25-.49.28-.8.04-.37.23-.74.31-1.14.13-.66.03-1.27-.19-1.81-.23-.56-.73-1.01-1.12-1.51-.02-.02-.06-.02-.09-.04-.43-.27-.85-.53-1.32-.73-.14-.06-.25-.22-.38-.34-.16.32-.36.21-.59.06-.14-.09-.3-.19-.45-.21-.2-.02-.4.04-.61.07,0,.14.01.33-.04.51-.15.47-.38.93-.48,1.41-.07.35-.12.68-.35.96-.02.02,0,.06-.02.09-.08.21-.15.43-.26.63-.07.13-.21.23-.33.36.08.07.14.13.2.18-.34.5-.66.98-.99,1.45-.01.02-.03.04-.03.06.06.49-.42.71-.55,1.13-.16.5-.63.89-.85,1.37-.23.51-.75.81-.9,1.35-.01.04-.06.06-.08.09-.4.52-.97.9-1.25,1.52-.02.03-.06.06-.09.09-.14.12-.31.23-.4.38-.52.83-1.19,1.53-1.87,2.22-.31.32-.56.71-.83,1.08-.32.44-.62.89-.95,1.32-.27.34-.58.65-.86.99-.04.04-.04.12-.07.18-.05.09-.1.19-.16.27-.37.45-.75.9-1.12,1.35-.03.04-.05.09-.08.14-.22.36-.43.73-.65,1.09-.27.45-.56.9-.82,1.36-.32.56-.62,1.14-.93,1.7-.02.04-.04.07-.06.11-.24.57-.49,1.14-.73,1.72-.02.05-.06.1-.05.15.07.49-.49.81-.35,1.32,0,.02-.03.06-.05.08-.22.16-.25.38-.26.64,0,.16-.14.33-.25.47-.08.11-.2.18-.37.33.12.05.21.08.26.1-.34.55-.67,1.02-.95,1.52-.66,1.17-1.2,2.42-2.27,3.31-.03.02-.04.08-.06.11-.12.17-.22.34-.36.49-.34.38-.74.73-1.05,1.14-.39.54-.86.96-1.42,1.3-.16.1-.36.19-.46.34-.24.38-.61.56-.99.71-.36.15-.73.25-.99.59-.07.09-.22.13-.34.16-.23.06-.46.08-.69.14-.09.02-.23.06-.24.11-.06.28-.27.26-.47.27-.21.01-.43.03-.64.06-.06,0-.17.06-.18.09-.02.25-.21.23-.38.24-.23.01-.47.02-.7.05-.08.01-.2.06-.23.12-.08.18-.22.21-.39.21-.21,0-.43,0-.64.02-.08,0-.16.08-.23.12-.11.06-.2.16-.32.18-.7.12-1.41.23-2.11.34-.05,0-.09.05-.14.07-.23.06-.46.13-.7.17-.18.03-.4-.03-.53.06-.33.22-.68.22-1.05.2-.09,0-.24.02-.25.07-.07.22-.22.14-.36.14-.3,0-.69-.09-.86.06-.23.2-.41.12-.63.12-.21,0-.43.05-.64.07-.2.02-.4.05-.59.04-.22-.01-.46-.16-.6.15-.01.03-.11.03-.17.02-.13-.01-.25-.06-.38-.06-.25,0-.56-.29-.74.13,0,.02-.14,0-.21-.02-.22-.04-.44-.09-.66-.13-.02.04-.04.09-.05.13.18.11.35.23.54.32.17.08.39.08.54.19.24.16.45.35.78.21.04-.02.13.05.2.09.17.09.34.19.51.27.06.03.19.04.2.02.12-.25.27-.07.4-.03.19.05.38.14.57.16.19.03.39-.03.57,0,.46.07.92.16,1.38.24.03,0,.07,0,.09,0,.33-.28.67-.06,1,0,.21.04.37.09.43-.18.07.01.12.03.18.03.25.03.53.14.74.06.34-.12.65-.15,1-.07.1.02.22-.03.32-.06.14-.04.27-.13.41-.15.19-.02.38.04.57.03.11,0,.22-.05.32-.09.12-.05.24-.14.37-.16.2-.03.41.02.61,0,.11-.01.21-.1.32-.15.09-.05.18-.12.28-.14.38-.08.84.15,1.13-.3.02-.04.12-.03.18-.04.24-.03.49-.04.73-.08.08-.01.22-.07.22-.12.03-.22.19-.2.33-.22.28-.05.6-.03.84-.17.44-.26.91-.42,1.4-.51.09-.02.17-.11.26-.17.14-.1.27-.24.43-.3.28-.1.58-.14.86-.23.08-.02.21-.08.22-.14.08-.32.33-.37.59-.45.31-.1.61-.23.89-.39.45-.26.87-.56,1.31-.84.09-.06.19-.1.25-.18.25-.32.48-.65.91-.76.07-.02.11-.12.17-.18.07-.07.15-.14.23-.21.26-.23.54-.44.78-.68.32-.32.61-.68.93-1.01.29-.31.61-.6.91-.9.01-.01.04-.04.03-.05-.08-.3.21-.35.33-.51.15-.19.28-.39.41-.58.07-.11.12-.23.19-.34.26-.45.55-.88.78-1.35.43-.87.84-1.76,1.24-2.65.03-.07.03-.16.04-.24.02-.15.04-.3.08-.44.05-.14.15-.26.18-.41.09-.34.16-.68.25-1.06.02,0-.04-.03-.14-.09.25-.31.49-.6.73-.9-.08-.02-.17-.04-.28-.07.15-.23.34-.41.4-.64.13-.46.38-.8.79-1.07-.09-.05-.15-.08-.24-.12Zm-24.91,15.18s0-.07,0-.1c.13-.05.25-.14.38-.15.22-.02.51.09.65-.02.31-.25.63-.22.97-.2.1,0,.25.03.31-.03.3-.3.68-.27,1.05-.27.08,0,.19,0,.25-.04.33-.26.71-.27,1.09-.28.13,0,.3-.03.39-.12.22-.22.5-.22.77-.25.14-.02.28,0,.42-.02.08-.01.21-.06.21-.09.02-.26.2-.23.37-.24.2-.01.41,0,.61-.04.11-.02.27-.07.3-.14.07-.25.25-.25.45-.26.2,0,.41,0,.6-.05.1-.02.24-.14.25-.23.03-.2.14-.2.3-.25.37-.1.76-.2,1.09-.4.44-.26.84-.6,1.25-.93.33-.27.67-.54.94-.85.57-.66,1.1-1.36,1.66-2.02.24-.28.57-.44.72-.83.18-.46.52-.87.79-1.3.03-.06.05-.12.09-.21-.41.13-.79.25-1.15.38-.07.02-.13.08-.17.14-.17.26-.44.34-.72.44-.38.13-.84.07-1.09.5-.03.05-.15.05-.24.06-.23.02-.47.03-.7.06-.08.01-.16.07-.24.11-.12.05-.24.14-.36.14-.22,0-.44-.05-.67-.07-.08,0-.15.03-.23.04-.13.02-.26.06-.39.04-.19-.03-.39-.17-.54-.13-.22.06-.32-.02-.49-.1-.48-.22-.93-.45-1.31-.84-.16-.16-.38-.24-.46-.49-.02-.07-.13-.12-.21-.16-.21-.1-.42-.19-.63-.3-.13-.07-.24-.19-.38-.23-.73-.18-1.46-.33-2.22-.5,0,.35-.22.24-.42.2-.13-.03-.25-.06-.38-.07-.08,0-.21.01-.22.06-.09.24-.28.18-.46.18-.21,0-.43-.01-.64,0-.08,0-.22.05-.23.11-.07.26-.26.26-.47.27-.33.01-.7,0-.91.3-.38.53-.93.79-1.49,1.06-.1.05-.22.11-.27.21-.27.43-.68.67-1.11.89-.23.13-.51.23-.67.42-.43.54-.98.87-1.61,1.11-.11.04-.21.13-.3.22-.18.17-.34.37-.53.53-.4.34-.94.49-1.28.93-.14.19-.41.27-.61.42-.4.3-.84.57-1.16.94-.35.4-.55.93-.86,1.37-.35.51.22,1.27.69,1.27.31,0,.52.1.76.19.08.03.19.02.28.03.25.03.5.02.74.09.17.05.32.23.41-.09,0-.03.13-.05.2-.04.19.03.37.09.56.12.07.01.15-.02.22-.04.13-.03.26-.11.38-.09.29.04.58.13.9.21-.04-.38.2-.3.4-.27.21.02.45.12.62.05.34-.14.66-.12,1-.07.09.01.26-.02.28-.07.07-.21.2-.17.36-.15.24.04.49.06.73.08.07,0,.19-.02.19-.05.05-.26.24-.2.4-.19.28.02.55.04.83.06Zm28.81-29.8c-.28-.12-.53-.21-.76-.34-.22-.13-.35-.42-.68-.31-.04.01-.11-.08-.17-.13-.47-.4-.94-.79-1.4-1.2-.37-.33-.76-.65-1.09-1.02-.29-.32-.37-.35-.66-.01-.07.08-.11.18-.17.27-.3.46-.66.86-1.17,1.1-.29.14-.61.31-.81.55-.22.28-.47.44-.79.55-.25.09-.58.14-.71.33-.24.36-.58.3-.9.36-.09.02-.2,0-.29.02-.07.02-.19.08-.19.13-.03.25-.2.24-.37.24-.19,0-.39.02-.58,0-.21-.03-.39-.04-.38.28-.34-.04-.66-.08-.97-.11-.09,0-.19.03-.28.07-.12.05-.24.16-.36.15-.35,0-.68.04-.96.28-.26.22-.53.42-.78.65-.18.17-.61.19-.44.62.01.03-.05.09-.08.13-.11.15-.24.3-.34.46-.04.07-.04.17-.05.25,0,.15.06.31.02.44-.08.27-.28.51.03.77.03.03.02.12.01.19,0,.2-.04.41-.02.61,0,.12.08.25.13.37.05.13.13.25.17.38.1.34-.14.78.28,1.04.04.03.03.14.03.21,0,.21-.01.43,0,.64,0,.09.04.18.07.27.05.14.15.27.17.41.08.6.13,1.21.19,1.81,0,.03.01.07.03.09.2.29.15.61.09.93-.02.1-.05.26,0,.3.26.21.14.46.11.7-.03.2-.13.48-.03.58.18.2.08.33.04.51-.04.19-.11.45-.02.57.13.17.09.27.06.43-.05.26-.16.54-.11.78.06.31-.03.54-.15.79-.16.31.02.7-.24.99,0,0,0,.02,0,.03.13.3,0,.53-.16.77-.05.08-.12.22-.09.29.11.23,0,.36-.14.51-.05.06-.08.13-.13.21.31.12.48-.04.66-.2.17-.16.34-.34.54-.44.56-.28,1.12-.53,1.5-1.06.1-.14.31-.21.46-.33.32-.24.73-.42.94-.74.22-.33.3-.77.42-1.15.12-.4.26-.72.58-.98.03-.02.04-.07.06-.11-.09-.03-.17-.05-.29-.09.11-.12.2-.19.26-.28.28-.44.6-.87.81-1.35.09-.21.17-.39.35-.54.07-.06.12-.15.17-.23.52-.87,1.02-1.75,1.55-2.61.17-.27.41-.5.61-.76.07-.08.12-.17.17-.26.09-.14.16-.3.27-.42.28-.33.58-.64.87-.96.03-.03.04-.07.07-.11.09-.15.18-.3.28-.45.13-.19.28-.37.42-.56.48-.63.93-1.28,1.43-1.88.33-.4.73-.73,1.09-1.1.07-.07.13-.17.19-.26.26-.38.5-.77.78-1.13.25-.33.55-.63.85-.97Zm-2.45-14.64c-.2.43-.45.8-.53,1.21-.07.34-.2.62-.38.9-.04.06,0,.18,0,.27,0,.1.03.21,0,.29-.11.27-.42.48-.17.83.02.03-.03.12-.06.18-.07.17-.16.33-.22.5-.03.07-.04.19,0,.23.21.17.08.33,0,.48-.12.22-.25.43-.01.67.04.04,0,.16,0,.24-.05.36-.27.72.05,1.06.02.02.02.06,0,.09-.13.46.06.85.23,1.26.09.22.1.48.16.72.02.1.04.23.11.29.45.37.66.88.89,1.39.02.06.04.13.09.16.21.13.44.23.64.38.68.49,1.35,1,2.03,1.49.02.01.04.01.06.02.04-.06.08-.12.12-.2.15.13.29.25.43.36.3.23.36.21.51-.13.06-.13.12-.25.19-.37.28-.49.56-.97.85-1.45.14-.24.3-.48.46-.74-.02-.01-.09-.05-.17-.11.18-.2.36-.37.51-.56.07-.09.1-.22.14-.34.04-.12.06-.26.11-.37.22-.46.45-.92.68-1.37.01-.03,0-.06.02-.09.07-.21.16-.41.23-.62.04-.12.08-.24.09-.36.01-.17-.03-.34-.02-.51,0-.17.08-.34.07-.5,0-.23-.05-.44-.36-.47-.09,0-.18-.13-.26-.21-.15-.15-.29-.31-.44-.46-.19-.19-.4-.38-.59-.56-.06-.06-.11-.13-.18-.17-.72-.46-1.44-.91-2.15-1.37-.29-.19-.59-.38-.88-.57-.39-.27-.78-.54-1.17-.81-.03-.02-.09-.05-.12-.04-.27.13-.38-.1-.54-.23-.13-.11-.25-.22-.41-.36Zm-19.2,8.97c-.23.02-.45.04-.67.06-.43.03-.58.24-.54.65.02.2-.04.41-.06.61-.02.19-.07.38-.08.57,0,.12.04.25.02.37-.03.15-.13.29-.17.45-.02.08.02.24.05.25.31.06.69.22.92.1.37-.19.72-.13,1.08-.14.1,0,.2-.02.29-.06.15-.06.29-.17.45-.21.36-.08.76.01,1.05-.29.16-.17.35-.2.57-.22.22-.02.46-.05.63-.17.3-.19.55-.45.84-.71-.03-.03-.08-.11-.16-.15-.57-.3-1.14-.62-1.73-.89-.36-.17-.76-.28-1.14-.4-.09-.03-.19,0-.29,0-.12,0-.24,0-.36.01-.25.03-.57-.25-.72.17Z"/><path class="cls-2" d="m46.72,141.38s-.07-.02-.17-.06c.24-.23.46-.44.68-.65-.02,0-.05-.02-.07-.03.02-.09,0-.19.05-.25.35-.44.74-.85,1.08-1.3.25-.33.44-.7.64-1.06.15-.27.36-.44.68-.47.23-.02.46-.06.69-.07.06,0,.14.05.2.09.2.14.38.33.6.43.35.16.42.4.39.74-.02.24.02.49,0,.74,0,.1-.08.19-.13.28-.14.24-.29.47-.44.7-.09.13-.21.25-.32.37-.03.04-.11.07-.11.1.02.34-.26.49-.43.71-.06.07-.07.17-.1.26-.02.06-.02.13-.06.18-.36.44-.74.85-1.07,1.3-.26.37-.45.79-.67,1.19-.01.03,0,.07-.03.09-.58.4-.66,1.12-1.05,1.64-.39.53-.61,1.25-1.34,1.48-.28.09-.58.28-.85.24-.33-.05-.64-.27-.94-.45-.09-.05-.1-.22-.15-.34-.08-.18-.18-.34-.25-.52-.03-.08-.04-.18-.02-.26.27-.84.81-1.53,1.25-2.27.21-.34.39-.7.6-1.04.13-.21.3-.38.44-.58.09-.12.15-.27.24-.39.21-.27.44-.52.66-.78Z"/><text class="cls-3" transform="translate(46.46 179.92)"><tspan x="0" y="0">Nägeli</tspan><tspan class="cls-1" x="144.94" y="0">s</tspan><tspan x="167.19" y="0">chueh.ch</tspan></text><text/></svg>